<svg width="101" height="20" viewBox="0 0 101 20" fill="none" xmlns="http://www.w3.org/2000/svg">
<path d="M20.9 2.9V1.4H19.5V0H18.1H15.3V1.4H13.9V2.9H12.5V4.3H11.2V5.7H9.8V1.4H8.4V0H1.4V1.4H0V18.5H1.4V20H8.4V18.5H9.8V14.3H11.2V15.7H12.5V17.1H13.9V18.5H15.3V20H18.1H19.5V18.5H20.9V17.1V15.7V14.3H19.5V12.8H18.1V11.4H16.7V10H15.3V8.6H16.7V7.1H18.1V5.7H19.5V4.3H20.9V2.9Z" fill="#58E4A1"/>
<path d="M31.8 0H24.8V1.3H24.7V1.4H23.4V18.5H24.8V20H31.8V18.6H33.2V1.4H31.8V0Z" fill="#58E4A1"/>
<path d="M53.9 1.4H52.5V0H38.5V1.3H37V2.9H35.7V17.2H37.1V18.6H38.5V20H52.4V18.6H53.9V17.2H55.3V2.9H53.9V1.4ZM49.7 14.3H45.5V4.3H49.7V14.3Z" fill="white"/>
<path d="M75.9 5.7V4.3H77.3V1.4H75.9V0H60.6V0.9H59.1V2.9H57.8V10H59.2V11.4H70.4V12.8H59.2V14.2H57.8V18.5H59.2V20H74.5V18.6H75.9V17.2H77.3V8.6H75.9V7.1H67.5V5.7H75.9Z" fill="#58E4A1"/>
<path d="M100.7 1.4V2.9V4.3H99.3V5.7H97.9V7.1H96.5V8.6H95.1V10H96.5V11.4H97.9V12.8H99.3V14.3H100.7V15.7V17.1V18.5H99.3V20H97.9H95.1V18.5H93.7V17.1H92.3V15.7H90.9V14.3H89.5V18.5H88.1V20H81.2V18.5H79.8V1.4H81.2V0H88.1V1.4H89.5V5.7H90.9V4.3H92.3V2.9H93.7V1.4H95.1V0H97.9H99.3V1.4H100.7Z" fill="#58E4A1"/>
</svg>
